<?xml version="1.0"?>
<UnitTests>
	<TestDataProvider>
		providerClass
	</TestDataProvider>
  <Description>a test data file for the decision layer second unit test (testKDLWrapCDLValidate)</Description>
  <UnitTestsData>
    <UnitTestData>
      <Description>test data 1 - MBR</Description>
      <Inputs>
        <Input type="mediaInfo" key="32653152">
          <Id>32653152</Id>
          <CreatedAt>2010-11-29 11:36:55</CreatedAt>
          <UpdatedAt>2010-11-29 11:36:55</UpdatedAt>
          <FlavorAssetId>0_m778mlh3</FlavorAssetId>
          <FileSize>74649</FileSize>
          <ContainerFormat>mpeg-4</ContainerFormat>
          <ContainerId>mp42</ContainerId>
          <ContainerProfile></ContainerProfile>
          <ContainerDuration>152000</ContainerDuration>
          <ContainerBitRate>4022</ContainerBitRate>
          <VideoFormat>avc</VideoFormat>
          <VideoCodecId>avc1</VideoCodecId>
          <VideoDuration>152000</VideoDuration>
          <VideoBitRate>3901</VideoBitRate>
          <VideoBitRateMode></VideoBitRateMode>
          <VideoWidth>1280</VideoWidth>
          <VideoHeight>720</VideoHeight>
          <VideoFrameRate>29.97</VideoFrameRate>
          <VideoDar>1.77778</VideoDar>
          <VideoRotation>0</VideoRotation>
          <AudioFormat>aac</AudioFormat>
          <AudioCodecId>40</AudioCodecId>
          <AudioDuration>152000</AudioDuration>
          <AudioBitRate>115</AudioBitRate>
          <AudioBitRateMode></AudioBitRateMode>
          <AudioChannels>2</AudioChannels>
          <AudioSamplingRate>44100</AudioSamplingRate>
          <AudioResolution></AudioResolution>
          <WritingLib></WritingLib>
          <CustomData></CustomData>
          <RawData>General
Complete name                    : /web/storage/r30/v1/content/entry/data/46/799/0_muf6ach2_0_m778mlh3_1.mp4
Format                           : MPEG-4
Format profile                   : Base Media / Version 2
Codec ID                         : mp42
File size                        : 72.9 MiB
Duration                         : 2mn 32s
Overall bit rate                 : 4 022 Kbps
Encoded date                     : UTC 2010-11-18 21:23:14
Tagged date                      : UTC 2010-11-18 21:23:16

Video
ID                               : 2
Format                           : AVC
Format/Info                      : Advanced Video Codec
Format profile                   : Main@L3.1
Format settings, CABAC           : No
Format settings, ReFrames        : 2 frames
Codec ID                         : avc1
Codec ID/Info                    : Advanced Video Coding
Duration                         : 2mn 32s
Bit rate mode                    : Variable
Bit rate                         : 3 901 Kbps
Width                            : 1 280 pixels
Height                           : 720 pixels
Display aspect ratio             : 16:9
Frame rate mode                  : Constant
Frame rate                       : 29.970 fps
Resolution                       : 8 bits
Colorimetry                      : 4:2:0
Scan type                        : Progressive
Bits/(Pixel*Frame)               : 0.141
Stream size                      : 70.7 MiB (97%)
Language                         : English
Encoded date                     : UTC 2010-11-18 21:16:36
Tagged date                      : UTC 2010-11-18 21:23:16
Color primaries                  : BT.709-5, BT.1361, IEC 61966-2-4, SMPTE RP177
Transfer characteristics         : BT.709-5, BT.1361
Matrix coefficients              : BT.709-5, BT.1361, IEC 61966-2-4 709, SMPTE RP177

Audio
ID                               : 1
Format                           : AAC
Format/Info                      : Advanced Audio Codec
Format version                   : Version 4
Format profile                   : LC
Format settings, SBR             : No
Codec ID                         : 40
Duration                         : 2mn 32s
Bit rate mode                    : Constant
Bit rate                         : 115 Kbps
Nominal bit rate                 : 128 Kbps
Channel(s)                       : 2 channels
Channel positions                : L R
Sampling rate                    : 44.1 KHz
Stream size                      : 2.08 MiB (3%)
Language                         : English
Encoded date                     : UTC 2010-11-18 21:16:36
Tagged date                      : UTC 2010-11-18 21:23:16


</RawData>
          <MultiStreamInfo></MultiStreamInfo>
          <FlavorAssetVersion>1</FlavorAssetVersion>
          <ScanType>0</ScanType>
          <MultiStream></MultiStream>
        </Input>
        <Input type="flavorParamsOutput" key="17467722">
          <Id>17467722</Id>
          <FlavorParamsId>5</FlavorParamsId>
          <FlavorParamsVersion>0</FlavorParamsVersion>
          <PartnerId>337071</PartnerId>
          <EntryId>0_muf6ach2</EntryId>
          <FlavorAssetId>0_x3cddwfw</FlavorAssetId>
          <FlavorAssetVersion></FlavorAssetVersion>
          <Name>Basic - Small</Name>
          <Tags>web,mbr</Tags>
          <Description></Description>
          <ReadyBehavior>2</ReadyBehavior>
          <CreatedAt>2010-11-29 11:36:55</CreatedAt>
          <UpdatedAt>2010-11-29 11:36:55</UpdatedAt>
          <DeletedAt></DeletedAt>
          <IsDefault>0</IsDefault>
          <Format>flv</Format>
          <VideoCodec>vp6</VideoCodec>
          <VideoBitrate>400</VideoBitrate>
          <AudioCodec>mp3</AudioCodec>
          <AudioBitrate>96</AudioBitrate>
          <AudioChannels>2</AudioChannels>
          <AudioSampleRate>44100</AudioSampleRate>
          <AudioResolution></AudioResolution>
          <Width>624</Width>
          <Height>352</Height>
          <FrameRate>29.97</FrameRate>
          <GopSize>60</GopSize>
          <TwoPass></TwoPass>
          <ConversionEngines>1,4,2,99,3</ConversionEngines>
          <ConversionEnginesExtraParams></ConversionEnginesExtraParams>
          <CustomData></CustomData>
          <array>
            <CommandLines key="1">-i __inFileName__ -c VP6 -r 30 -b 400 -k 60 -w 624 -h 352 -a 96 -s 44100 -o __outFileName__</CommandLines>
            <CommandLines key="4">encoding.com</CommandLines>
            <CommandLines key="2">-i __inFileName__ -vcodec flv -b 400k -s 624x352 -r 29.97 -g 60 -acodec libmp3lame -ab 96k -ar 44100 -ac 2 -f flv -y __outFileName__</CommandLines>
            <CommandLines key="99">-i __inFileName__ -vcodec flv -b 400k -s 624x352 -r 29.97 -g 60 -acodec libmp3lame -ab 96k -ar 44100 -ac 2 -f flv -y __outFileName__</CommandLines>
            <CommandLines key="3"> __inFileName__ -of lavf -lavfopts format=flv -ofps 29.97 -ovc lavc -lavcopts vcodec=flv:vbitrate=400:mbd=2:mv0:trell:v4mv:cbp:last_pred=3:keyint=60 -vf harddup,scale=624:352 -oac mp3lame -lameopts abr:br=96 -srate 44100 -o __outFileName__</CommandLines>
          </array>
          <FileExt>flv</FileExt>
          <Deinterlice>0</Deinterlice>
          <Rotate>0</Rotate>
          <Operators></Operators>
          <EngineVersion>0</EngineVersion>
        </Input>
        <Input type="mediaInfo" key="32653402">
          <Id>32653402</Id>
          <CreatedAt>2010-11-29 11:42:27</CreatedAt>
          <UpdatedAt>2010-11-29 11:42:27</UpdatedAt>
          <FlavorAssetId>0_x3cddwfw</FlavorAssetId>
          <FileSize>6850</FileSize>
          <ContainerFormat>flash video</ContainerFormat>
          <ContainerId></ContainerId>
          <ContainerProfile></ContainerProfile>
          <ContainerDuration>152000</ContainerDuration>
          <ContainerBitRate>369</ContainerBitRate>
          <VideoFormat>vp6</VideoFormat>
          <VideoCodecId></VideoCodecId>
          <VideoDuration>152000</VideoDuration>
          <VideoBitRate>289</VideoBitRate>
          <VideoBitRateMode></VideoBitRateMode>
          <VideoWidth>624</VideoWidth>
          <VideoHeight>352</VideoHeight>
          <VideoFrameRate>30</VideoFrameRate>
          <VideoDar>1.77778</VideoDar>
          <VideoRotation>0</VideoRotation>
          <AudioFormat>mpeg audio</AudioFormat>
          <AudioCodecId></AudioCodecId>
          <AudioDuration>152000</AudioDuration>
          <AudioBitRate>64</AudioBitRate>
          <AudioBitRateMode></AudioBitRateMode>
          <AudioChannels>2</AudioChannels>
          <AudioSamplingRate>44100</AudioSamplingRate>
          <AudioResolution></AudioResolution>
          <WritingLib></WritingLib>
          <CustomData></CustomData>
          <RawData>General
Complete name                    : /web/storage/r30/v1/content/entry/data/46/799/0_muf6ach2_0_x3cddwfw_1.flv
Format                           : Flash Video
File size                        : 6.69 MiB
Duration                         : 2mn 32s
Overall bit rate                 : 369 Kbps
Tagging application              : FlixEngineLinux_8.0.16.1 (www.on2.com)

Video
Format                           : VP6
Duration                         : 2mn 32s
Bit rate                         : 289 Kbps
Width                            : 624 pixels
Height                           : 352 pixels
Display aspect ratio             : 16:9
Frame rate                       : 30.000 fps
Bits/(Pixel*Frame)               : 0.044
Stream size                      : 5.37 MiB (80%)

Audio
Format                           : MPEG Audio
Format version                   : Version 1
Format profile                   : Layer 3
Format_Settings_Mode             : Joint stereo
Format_Settings_ModeExtension    : MS Stereo
Duration                         : 2mn 32s
Bit rate mode                    : Constant
Bit rate                         : 64.0 Kbps
Channel(s)                       : 2 channels
Sampling rate                    : 44.1 KHz
Video delay                      : 23ms
Stream size                      : 1.16 MiB (17%)
Writing library                  : LAMEUUULAME3.96.1


</RawData>
          <MultiStreamInfo></MultiStreamInfo>
          <FlavorAssetVersion>1</FlavorAssetVersion>
          <ScanType>0</ScanType>
          <MultiStream></MultiStream>
        </Input>
      </Inputs>
      <OutputReferences/>
    </UnitTestData>
    <UnitTestData>
      <Description>test data 2 - MBR</Description>
      <Inputs>
        <Input type="mediaInfo" key="32653152">
          <Id>32653152</Id>
          <CreatedAt>2010-11-29 11:36:55</CreatedAt>
          <UpdatedAt>2010-11-29 11:36:55</UpdatedAt>
          <FlavorAssetId>0_m778mlh3</FlavorAssetId>
          <FileSize>74649</FileSize>
          <ContainerFormat>mpeg-4</ContainerFormat>
          <ContainerId>mp42</ContainerId>
          <ContainerProfile></ContainerProfile>
          <ContainerDuration>152000</ContainerDuration>
          <ContainerBitRate>4022</ContainerBitRate>
          <VideoFormat>avc</VideoFormat>
          <VideoCodecId>avc1</VideoCodecId>
          <VideoDuration>152000</VideoDuration>
          <VideoBitRate>3901</VideoBitRate>
          <VideoBitRateMode></VideoBitRateMode>
          <VideoWidth>1280</VideoWidth>
          <VideoHeight>720</VideoHeight>
          <VideoFrameRate>29.97</VideoFrameRate>
          <VideoDar>1.77778</VideoDar>
          <VideoRotation>0</VideoRotation>
          <AudioFormat>aac</AudioFormat>
          <AudioCodecId>40</AudioCodecId>
          <AudioDuration>152000</AudioDuration>
          <AudioBitRate>115</AudioBitRate>
          <AudioBitRateMode></AudioBitRateMode>
          <AudioChannels>2</AudioChannels>
          <AudioSamplingRate>44100</AudioSamplingRate>
          <AudioResolution></AudioResolution>
          <WritingLib></WritingLib>
          <CustomData></CustomData>
          <RawData>General
Complete name                    : /web/storage/r30/v1/content/entry/data/46/799/0_muf6ach2_0_m778mlh3_1.mp4
Format                           : MPEG-4
Format profile                   : Base Media / Version 2
Codec ID                         : mp42
File size                        : 72.9 MiB
Duration                         : 2mn 32s
Overall bit rate                 : 4 022 Kbps
Encoded date                     : UTC 2010-11-18 21:23:14
Tagged date                      : UTC 2010-11-18 21:23:16

Video
ID                               : 2
Format                           : AVC
Format/Info                      : Advanced Video Codec
Format profile                   : Main@L3.1
Format settings, CABAC           : No
Format settings, ReFrames        : 2 frames
Codec ID                         : avc1
Codec ID/Info                    : Advanced Video Coding
Duration                         : 2mn 32s
Bit rate mode                    : Variable
Bit rate                         : 3 901 Kbps
Width                            : 1 280 pixels
Height                           : 720 pixels
Display aspect ratio             : 16:9
Frame rate mode                  : Constant
Frame rate                       : 29.970 fps
Resolution                       : 8 bits
Colorimetry                      : 4:2:0
Scan type                        : Progressive
Bits/(Pixel*Frame)               : 0.141
Stream size                      : 70.7 MiB (97%)
Language                         : English
Encoded date                     : UTC 2010-11-18 21:16:36
Tagged date                      : UTC 2010-11-18 21:23:16
Color primaries                  : BT.709-5, BT.1361, IEC 61966-2-4, SMPTE RP177
Transfer characteristics         : BT.709-5, BT.1361
Matrix coefficients              : BT.709-5, BT.1361, IEC 61966-2-4 709, SMPTE RP177

Audio
ID                               : 1
Format                           : AAC
Format/Info                      : Advanced Audio Codec
Format version                   : Version 4
Format profile                   : LC
Format settings, SBR             : No
Codec ID                         : 40
Duration                         : 2mn 32s
Bit rate mode                    : Constant
Bit rate                         : 115 Kbps
Nominal bit rate                 : 128 Kbps
Channel(s)                       : 2 channels
Channel positions                : L R
Sampling rate                    : 44.1 KHz
Stream size                      : 2.08 MiB (3%)
Language                         : English
Encoded date                     : UTC 2010-11-18 21:16:36
Tagged date                      : UTC 2010-11-18 21:23:16


</RawData>
          <MultiStreamInfo></MultiStreamInfo>
          <FlavorAssetVersion>1</FlavorAssetVersion>
          <ScanType>0</ScanType>
          <MultiStream></MultiStream>
        </Input>
        <Input type="flavorParamsOutput" key="17467742">
          <Id>17467742</Id>
          <FlavorParamsId>4</FlavorParamsId>
          <FlavorParamsVersion>0</FlavorParamsVersion>
          <PartnerId>337071</PartnerId>
          <EntryId>0_muf6ach2</EntryId>
          <FlavorAssetId>0_m56eolqo</FlavorAssetId>
          <FlavorAssetVersion></FlavorAssetVersion>
          <Name>Standard - Small</Name>
          <Tags>web,mbr</Tags>
          <Description></Description>
          <ReadyBehavior>2</ReadyBehavior>
          <CreatedAt>2010-11-29 11:36:55</CreatedAt>
          <UpdatedAt>2010-11-29 11:36:55</UpdatedAt>
          <DeletedAt></DeletedAt>
          <IsDefault>0</IsDefault>
          <Format>flv</Format>
          <VideoCodec>vp6</VideoCodec>
          <VideoBitrate>750</VideoBitrate>
          <AudioCodec>mp3</AudioCodec>
          <AudioBitrate>96</AudioBitrate>
          <AudioChannels>2</AudioChannels>
          <AudioSampleRate>44100</AudioSampleRate>
          <AudioResolution></AudioResolution>
          <Width>624</Width>
          <Height>352</Height>
          <FrameRate>29.97</FrameRate>
          <GopSize>60</GopSize>
          <TwoPass></TwoPass>
          <ConversionEngines>1,4,2,99,3</ConversionEngines>
          <ConversionEnginesExtraParams></ConversionEnginesExtraParams>
          <CustomData></CustomData>
          <array>
            <CommandLines key="1">-i __inFileName__ -c VP6 -r 30 -b 750 -k 60 -w 624 -h 352 -a 96 -s 44100 -o __outFileName__</CommandLines>
            <CommandLines key="4">encoding.com</CommandLines>
            <CommandLines key="2">-i __inFileName__ -vcodec flv -b 750k -s 624x352 -r 29.97 -g 60 -acodec libmp3lame -ab 96k -ar 44100 -ac 2 -f flv -y __outFileName__</CommandLines>
            <CommandLines key="99">-i __inFileName__ -vcodec flv -b 750k -s 624x352 -r 29.97 -g 60 -acodec libmp3lame -ab 96k -ar 44100 -ac 2 -f flv -y __outFileName__</CommandLines>
            <CommandLines key="3"> __inFileName__ -of lavf -lavfopts format=flv -ofps 29.97 -ovc lavc -lavcopts vcodec=flv:vbitrate=750:mbd=2:mv0:trell:v4mv:cbp:last_pred=3:keyint=60 -vf harddup,scale=624:352 -oac mp3lame -lameopts abr:br=96 -srate 44100 -o __outFileName__</CommandLines>
          </array>
          <FileExt>flv</FileExt>
          <Deinterlice>0</Deinterlice>
          <Rotate>0</Rotate>
          <Operators></Operators>
          <EngineVersion>0</EngineVersion>
        </Input>
        <Input type="mediaInfo" key="32653392">
          <Id>32653392</Id>
          <CreatedAt>2010-11-29 11:42:27</CreatedAt>
          <UpdatedAt>2010-11-29 11:42:27</UpdatedAt>
          <FlavorAssetId>0_m56eolqo</FlavorAssetId>
          <FileSize>7280</FileSize>
          <ContainerFormat>flash video</ContainerFormat>
          <ContainerId></ContainerId>
          <ContainerProfile></ContainerProfile>
          <ContainerDuration>152000</ContainerDuration>
          <ContainerBitRate>392</ContainerBitRate>
          <VideoFormat>vp6</VideoFormat>
          <VideoCodecId></VideoCodecId>
          <VideoDuration>152000</VideoDuration>
          <VideoBitRate>312</VideoBitRate>
          <VideoBitRateMode></VideoBitRateMode>
          <VideoWidth>624</VideoWidth>
          <VideoHeight>352</VideoHeight>
          <VideoFrameRate>30</VideoFrameRate>
          <VideoDar>1.77778</VideoDar>
          <VideoRotation>0</VideoRotation>
          <AudioFormat>mpeg audio</AudioFormat>
          <AudioCodecId></AudioCodecId>
          <AudioDuration>152000</AudioDuration>
          <AudioBitRate>64</AudioBitRate>
          <AudioBitRateMode></AudioBitRateMode>
          <AudioChannels>2</AudioChannels>
          <AudioSamplingRate>44100</AudioSamplingRate>
          <AudioResolution></AudioResolution>
          <WritingLib></WritingLib>
          <CustomData></CustomData>
          <RawData>General
Complete name                    : /web/storage/r29/v1/content/entry/data/46/799/0_muf6ach2_0_m56eolqo_1.flv
Format                           : Flash Video
File size                        : 7.11 MiB
Duration                         : 2mn 32s
Overall bit rate                 : 392 Kbps
Tagging application              : FlixEngineLinux_8.0.16.1 (www.on2.com)

Video
Format                           : VP6
Duration                         : 2mn 32s
Bit rate                         : 312 Kbps
Width                            : 624 pixels
Height                           : 352 pixels
Display aspect ratio             : 16:9
Frame rate                       : 30.000 fps
Bits/(Pixel*Frame)               : 0.047
Stream size                      : 5.79 MiB (81%)

Audio
Format                           : MPEG Audio
Format version                   : Version 1
Format profile                   : Layer 3
Format_Settings_Mode             : Joint stereo
Format_Settings_ModeExtension    : MS Stereo
Duration                         : 2mn 32s
Bit rate mode                    : Constant
Bit rate                         : 64.0 Kbps
Channel(s)                       : 2 channels
Sampling rate                    : 44.1 KHz
Video delay                      : 23ms
Stream size                      : 1.16 MiB (16%)
Writing library                  : LAMEUUULAME3.96.1


</RawData>
          <MultiStreamInfo></MultiStreamInfo>
          <FlavorAssetVersion>1</FlavorAssetVersion>
          <ScanType>0</ScanType>
          <MultiStream></MultiStream>
        </Input>
      </Inputs>
      <OutputReferences/>
    </UnitTestData>
    <UnitTestData>
      <Description>test data 3 - MBR</Description>
      <Inputs>
        <Input type="mediaInfo" key="32653152">
          <Id>32653152</Id>
          <CreatedAt>2010-11-29 11:36:55</CreatedAt>
          <UpdatedAt>2010-11-29 11:36:55</UpdatedAt>
          <FlavorAssetId>0_m778mlh3</FlavorAssetId>
          <FileSize>74649</FileSize>
          <ContainerFormat>mpeg-4</ContainerFormat>
          <ContainerId>mp42</ContainerId>
          <ContainerProfile></ContainerProfile>
          <ContainerDuration>152000</ContainerDuration>
          <ContainerBitRate>4022</ContainerBitRate>
          <VideoFormat>avc</VideoFormat>
          <VideoCodecId>avc1</VideoCodecId>
          <VideoDuration>152000</VideoDuration>
          <VideoBitRate>3901</VideoBitRate>
          <VideoBitRateMode></VideoBitRateMode>
          <VideoWidth>1280</VideoWidth>
          <VideoHeight>720</VideoHeight>
          <VideoFrameRate>29.97</VideoFrameRate>
          <VideoDar>1.77778</VideoDar>
          <VideoRotation>0</VideoRotation>
          <AudioFormat>aac</AudioFormat>
          <AudioCodecId>40</AudioCodecId>
          <AudioDuration>152000</AudioDuration>
          <AudioBitRate>115</AudioBitRate>
          <AudioBitRateMode></AudioBitRateMode>
          <AudioChannels>2</AudioChannels>
          <AudioSamplingRate>44100</AudioSamplingRate>
          <AudioResolution></AudioResolution>
          <WritingLib></WritingLib>
          <CustomData></CustomData>
          <RawData>General
Complete name                    : /web/storage/r30/v1/content/entry/data/46/799/0_muf6ach2_0_m778mlh3_1.mp4
Format                           : MPEG-4
Format profile                   : Base Media / Version 2
Codec ID                         : mp42
File size                        : 72.9 MiB
Duration                         : 2mn 32s
Overall bit rate                 : 4 022 Kbps
Encoded date                     : UTC 2010-11-18 21:23:14
Tagged date                      : UTC 2010-11-18 21:23:16

Video
ID                               : 2
Format                           : AVC
Format/Info                      : Advanced Video Codec
Format profile                   : Main@L3.1
Format settings, CABAC           : No
Format settings, ReFrames        : 2 frames
Codec ID                         : avc1
Codec ID/Info                    : Advanced Video Coding
Duration                         : 2mn 32s
Bit rate mode                    : Variable
Bit rate                         : 3 901 Kbps
Width                            : 1 280 pixels
Height                           : 720 pixels
Display aspect ratio             : 16:9
Frame rate mode                  : Constant
Frame rate                       : 29.970 fps
Resolution                       : 8 bits
Colorimetry                      : 4:2:0
Scan type                        : Progressive
Bits/(Pixel*Frame)               : 0.141
Stream size                      : 70.7 MiB (97%)
Language                         : English
Encoded date                     : UTC 2010-11-18 21:16:36
Tagged date                      : UTC 2010-11-18 21:23:16
Color primaries                  : BT.709-5, BT.1361, IEC 61966-2-4, SMPTE RP177
Transfer characteristics         : BT.709-5, BT.1361
Matrix coefficients              : BT.709-5, BT.1361, IEC 61966-2-4 709, SMPTE RP177

Audio
ID                               : 1
Format                           : AAC
Format/Info                      : Advanced Audio Codec
Format version                   : Version 4
Format profile                   : LC
Format settings, SBR             : No
Codec ID                         : 40
Duration                         : 2mn 32s
Bit rate mode                    : Constant
Bit rate                         : 115 Kbps
Nominal bit rate                 : 128 Kbps
Channel(s)                       : 2 channels
Channel positions                : L R
Sampling rate                    : 44.1 KHz
Stream size                      : 2.08 MiB (3%)
Language                         : English
Encoded date                     : UTC 2010-11-18 21:16:36
Tagged date                      : UTC 2010-11-18 21:23:16


</RawData>
          <MultiStreamInfo></MultiStreamInfo>
          <FlavorAssetVersion>1</FlavorAssetVersion>
          <ScanType>0</ScanType>
          <MultiStream></MultiStream>
        </Input>
        <Input type="flavorParamsOutput" key="17467762">
          <Id>17467762</Id>
          <FlavorParamsId>3</FlavorParamsId>
          <FlavorParamsVersion>0</FlavorParamsVersion>
          <PartnerId>337071</PartnerId>
          <EntryId>0_muf6ach2</EntryId>
          <FlavorAssetId>0_epl2z9or</FlavorAssetId>
          <FlavorAssetVersion></FlavorAssetVersion>
          <Name>Standard - Large</Name>
          <Tags>web,mbr</Tags>
          <Description></Description>
          <ReadyBehavior>2</ReadyBehavior>
          <CreatedAt>2010-11-29 11:36:55</CreatedAt>
          <UpdatedAt>2010-11-29 11:36:55</UpdatedAt>
          <DeletedAt></DeletedAt>
          <IsDefault>0</IsDefault>
          <Format>flv</Format>
          <VideoCodec>vp6</VideoCodec>
          <VideoBitrate>1350</VideoBitrate>
          <AudioCodec>mp3</AudioCodec>
          <AudioBitrate>96</AudioBitrate>
          <AudioChannels>2</AudioChannels>
          <AudioSampleRate>44100</AudioSampleRate>
          <AudioResolution></AudioResolution>
          <Width>1280</Width>
          <Height>720</Height>
          <FrameRate>29.97</FrameRate>
          <GopSize>60</GopSize>
          <TwoPass></TwoPass>
          <ConversionEngines>1,4,2,99,3</ConversionEngines>
          <ConversionEnginesExtraParams></ConversionEnginesExtraParams>
          <CustomData></CustomData>
          <array>
            <CommandLines key="1">-i __inFileName__ -c VP6 -r 30 -b 1350 -k 60 -w 1280 -h 720 -a 96 -s 44100 -o __outFileName__</CommandLines>
            <CommandLines key="4">encoding.com</CommandLines>
            <CommandLines key="2">-i __inFileName__ -vcodec flv -b 1350k -s 1280x720 -r 29.97 -g 60 -acodec libmp3lame -ab 96k -ar 44100 -ac 2 -f flv -y __outFileName__</CommandLines>
            <CommandLines key="99">-i __inFileName__ -vcodec flv -b 1350k -s 1280x720 -r 29.97 -g 60 -acodec libmp3lame -ab 96k -ar 44100 -ac 2 -f flv -y __outFileName__</CommandLines>
            <CommandLines key="3"> __inFileName__ -of lavf -lavfopts format=flv -ofps 29.97 -ovc lavc -lavcopts vcodec=flv:vbitrate=1350:mbd=2:mv0:trell:v4mv:cbp:last_pred=3:keyint=60 -vf harddup,scale=1280:720 -oac mp3lame -lameopts abr:br=96 -srate 44100 -o __outFileName__</CommandLines>
          </array>
          <FileExt>flv</FileExt>
          <Deinterlice>0</Deinterlice>
          <Rotate>0</Rotate>
          <Operators></Operators>
          <EngineVersion>0</EngineVersion>
        </Input>
        <Input type="mediaInfo" key="32653532">
          <Id>32653532</Id>
          <CreatedAt>2010-11-29 11:43:41</CreatedAt>
          <UpdatedAt>2010-11-29 11:43:41</UpdatedAt>
          <FlavorAssetId>0_epl2z9or</FlavorAssetId>
          <FileSize>20377</FileSize>
          <ContainerFormat>flash video</ContainerFormat>
          <ContainerId></ContainerId>
          <ContainerProfile></ContainerProfile>
          <ContainerDuration>152000</ContainerDuration>
          <ContainerBitRate>1098</ContainerBitRate>
          <VideoFormat>vp6</VideoFormat>
          <VideoCodecId></VideoCodecId>
          <VideoDuration>152000</VideoDuration>
          <VideoBitRate>1002</VideoBitRate>
          <VideoBitRateMode></VideoBitRateMode>
          <VideoWidth>1280</VideoWidth>
          <VideoHeight>720</VideoHeight>
          <VideoFrameRate>30</VideoFrameRate>
          <VideoDar>1.77778</VideoDar>
          <VideoRotation>0</VideoRotation>
          <AudioFormat>mpeg audio</AudioFormat>
          <AudioCodecId></AudioCodecId>
          <AudioDuration>152000</AudioDuration>
          <AudioBitRate>64</AudioBitRate>
          <AudioBitRateMode></AudioBitRateMode>
          <AudioChannels>2</AudioChannels>
          <AudioSamplingRate>44100</AudioSamplingRate>
          <AudioResolution></AudioResolution>
          <WritingLib></WritingLib>
          <CustomData></CustomData>
          <RawData>General
Complete name                    : /web/storage/r29/v1/content/entry/data/46/799/0_muf6ach2_0_epl2z9or_1.flv
Format                           : Flash Video
File size                        : 19.9 MiB
Duration                         : 2mn 32s
Overall bit rate                 : 1 098 Kbps
Tagging application              : FlixEngineLinux_8.0.16.1 (www.on2.com)

Video
Format                           : VP6
Duration                         : 2mn 32s
Bit rate                         : 1 002 Kbps
Width                            : 1 280 pixels
Height                           : 720 pixels
Display aspect ratio             : 16:9
Frame rate                       : 30.000 fps
Bits/(Pixel*Frame)               : 0.036
Stream size                      : 18.6 MiB (93%)

Audio
Format                           : MPEG Audio
Format version                   : Version 1
Format profile                   : Layer 3
Format_Settings_Mode             : Joint stereo
Format_Settings_ModeExtension    : MS Stereo
Duration                         : 2mn 32s
Bit rate mode                    : Constant
Bit rate                         : 64.0 Kbps
Channel(s)                       : 2 channels
Sampling rate                    : 44.1 KHz
Video delay                      : 23ms
Stream size                      : 1.16 MiB (6%)
Writing library                  : LAMEUUULAME3.96.1


</RawData>
          <MultiStreamInfo></MultiStreamInfo>
          <FlavorAssetVersion>1</FlavorAssetVersion>
          <ScanType>0</ScanType>
          <MultiStream></MultiStream>
        </Input>
      </Inputs>
      <OutputReferences/>
    </UnitTestData>
    <UnitTestData>
      <Description>test data 4 - MBR</Description>
      <Inputs>
        <Input type="mediaInfo" key="32653152">
          <Id>32653152</Id>
          <CreatedAt>2010-11-29 11:36:55</CreatedAt>
          <UpdatedAt>2010-11-29 11:36:55</UpdatedAt>
          <FlavorAssetId>0_m778mlh3</FlavorAssetId>
          <FileSize>74649</FileSize>
          <ContainerFormat>mpeg-4</ContainerFormat>
          <ContainerId>mp42</ContainerId>
          <ContainerProfile></ContainerProfile>
          <ContainerDuration>152000</ContainerDuration>
          <ContainerBitRate>4022</ContainerBitRate>
          <VideoFormat>avc</VideoFormat>
          <VideoCodecId>avc1</VideoCodecId>
          <VideoDuration>152000</VideoDuration>
          <VideoBitRate>3901</VideoBitRate>
          <VideoBitRateMode></VideoBitRateMode>
          <VideoWidth>1280</VideoWidth>
          <VideoHeight>720</VideoHeight>
          <VideoFrameRate>29.97</VideoFrameRate>
          <VideoDar>1.77778</VideoDar>
          <VideoRotation>0</VideoRotation>
          <AudioFormat>aac</AudioFormat>
          <AudioCodecId>40</AudioCodecId>
          <AudioDuration>152000</AudioDuration>
          <AudioBitRate>115</AudioBitRate>
          <AudioBitRateMode></AudioBitRateMode>
          <AudioChannels>2</AudioChannels>
          <AudioSamplingRate>44100</AudioSamplingRate>
          <AudioResolution></AudioResolution>
          <WritingLib></WritingLib>
          <CustomData></CustomData>
          <RawData>General
Complete name                    : /web/storage/r30/v1/content/entry/data/46/799/0_muf6ach2_0_m778mlh3_1.mp4
Format                           : MPEG-4
Format profile                   : Base Media / Version 2
Codec ID                         : mp42
File size                        : 72.9 MiB
Duration                         : 2mn 32s
Overall bit rate                 : 4 022 Kbps
Encoded date                     : UTC 2010-11-18 21:23:14
Tagged date                      : UTC 2010-11-18 21:23:16

Video
ID                               : 2
Format                           : AVC
Format/Info                      : Advanced Video Codec
Format profile                   : Main@L3.1
Format settings, CABAC           : No
Format settings, ReFrames        : 2 frames
Codec ID                         : avc1
Codec ID/Info                    : Advanced Video Coding
Duration                         : 2mn 32s
Bit rate mode                    : Variable
Bit rate                         : 3 901 Kbps
Width                            : 1 280 pixels
Height                           : 720 pixels
Display aspect ratio             : 16:9
Frame rate mode                  : Constant
Frame rate                       : 29.970 fps
Resolution                       : 8 bits
Colorimetry                      : 4:2:0
Scan type                        : Progressive
Bits/(Pixel*Frame)               : 0.141
Stream size                      : 70.7 MiB (97%)
Language                         : English
Encoded date                     : UTC 2010-11-18 21:16:36
Tagged date                      : UTC 2010-11-18 21:23:16
Color primaries                  : BT.709-5, BT.1361, IEC 61966-2-4, SMPTE RP177
Transfer characteristics         : BT.709-5, BT.1361
Matrix coefficients              : BT.709-5, BT.1361, IEC 61966-2-4 709, SMPTE RP177

Audio
ID                               : 1
Format                           : AAC
Format/Info                      : Advanced Audio Codec
Format version                   : Version 4
Format profile                   : LC
Format settings, SBR             : No
Codec ID                         : 40
Duration                         : 2mn 32s
Bit rate mode                    : Constant
Bit rate                         : 115 Kbps
Nominal bit rate                 : 128 Kbps
Channel(s)                       : 2 channels
Channel positions                : L R
Sampling rate                    : 44.1 KHz
Stream size                      : 2.08 MiB (3%)
Language                         : English
Encoded date                     : UTC 2010-11-18 21:16:36
Tagged date                      : UTC 2010-11-18 21:23:16


</RawData>
          <MultiStreamInfo></MultiStreamInfo>
          <FlavorAssetVersion>1</FlavorAssetVersion>
          <ScanType>0</ScanType>
          <MultiStream></MultiStream>
        </Input>
        <Input type="flavorParamsOutput" key="17467792">
          <Id>17467792</Id>
          <FlavorParamsId>2</FlavorParamsId>
          <FlavorParamsVersion>0</FlavorParamsVersion>
          <PartnerId>337071</PartnerId>
          <EntryId>0_muf6ach2</EntryId>
          <FlavorAssetId>0_ea1y5x6g</FlavorAssetId>
          <FlavorAssetVersion></FlavorAssetVersion>
          <Name>High - Large</Name>
          <Tags>web,mbr</Tags>
          <Description></Description>
          <ReadyBehavior>2</ReadyBehavior>
          <CreatedAt>2010-11-29 11:36:56</CreatedAt>
          <UpdatedAt>2010-11-29 11:36:56</UpdatedAt>
          <DeletedAt></DeletedAt>
          <IsDefault>0</IsDefault>
          <Format>flv</Format>
          <VideoCodec>vp6</VideoCodec>
          <VideoBitrate>2500</VideoBitrate>
          <AudioCodec>mp3</AudioCodec>
          <AudioBitrate>128</AudioBitrate>
          <AudioChannels>2</AudioChannels>
          <AudioSampleRate>44100</AudioSampleRate>
          <AudioResolution></AudioResolution>
          <Width>1280</Width>
          <Height>720</Height>
          <FrameRate>29.97</FrameRate>
          <GopSize>60</GopSize>
          <TwoPass></TwoPass>
          <ConversionEngines>1,4,2,99,3</ConversionEngines>
          <ConversionEnginesExtraParams></ConversionEnginesExtraParams>
          <CustomData></CustomData>
          <array>
            <CommandLines key="1">-i __inFileName__ -c VP6 -r 30 -b 2500 -k 60 -w 1280 -h 720 -a 128 -s 44100 -o __outFileName__</CommandLines>
            <CommandLines key="4">encoding.com</CommandLines>
            <CommandLines key="2">-i __inFileName__ -vcodec flv -b 2500k -s 1280x720 -r 29.97 -g 60 -acodec libmp3lame -ab 128k -ar 44100 -ac 2 -f flv -y __outFileName__</CommandLines>
            <CommandLines key="99">-i __inFileName__ -vcodec flv -b 2500k -s 1280x720 -r 29.97 -g 60 -acodec libmp3lame -ab 128k -ar 44100 -ac 2 -f flv -y __outFileName__</CommandLines>
            <CommandLines key="3"> __inFileName__ -of lavf -lavfopts format=flv -ofps 29.97 -ovc lavc -lavcopts vcodec=flv:vbitrate=2500:mbd=2:mv0:trell:v4mv:cbp:last_pred=3:keyint=60 -vf harddup,scale=1280:720 -oac mp3lame -lameopts abr:br=128 -srate 44100 -o __outFileName__</CommandLines>
          </array>
          <FileExt>flv</FileExt>
          <Deinterlice>0</Deinterlice>
          <Rotate>0</Rotate>
          <Operators></Operators>
          <EngineVersion>0</EngineVersion>
        </Input>
        <Input type="mediaInfo" key="32653492">
          <Id>32653492</Id>
          <CreatedAt>2010-11-29 11:43:24</CreatedAt>
          <UpdatedAt>2010-11-29 11:43:24</UpdatedAt>
          <FlavorAssetId>0_ea1y5x6g</FlavorAssetId>
          <FileSize>24268</FileSize>
          <ContainerFormat>flash video</ContainerFormat>
          <ContainerId></ContainerId>
          <ContainerProfile></ContainerProfile>
          <ContainerDuration>152000</ContainerDuration>
          <ContainerBitRate>1309</ContainerBitRate>
          <VideoFormat>vp6</VideoFormat>
          <VideoCodecId></VideoCodecId>
          <VideoDuration>152000</VideoDuration>
          <VideoBitRate>1208</VideoBitRate>
          <VideoBitRateMode></VideoBitRateMode>
          <VideoWidth>1280</VideoWidth>
          <VideoHeight>720</VideoHeight>
          <VideoFrameRate>30</VideoFrameRate>
          <VideoDar>1.77778</VideoDar>
          <VideoRotation>0</VideoRotation>
          <AudioFormat>mpeg audio</AudioFormat>
          <AudioCodecId></AudioCodecId>
          <AudioDuration>152000</AudioDuration>
          <AudioBitRate>64</AudioBitRate>
          <AudioBitRateMode></AudioBitRateMode>
          <AudioChannels>2</AudioChannels>
          <AudioSamplingRate>44100</AudioSamplingRate>
          <AudioResolution></AudioResolution>
          <WritingLib></WritingLib>
          <CustomData></CustomData>
          <RawData>General
Complete name                    : /web/storage/r30/v1/content/entry/data/46/799/0_muf6ach2_0_ea1y5x6g_1.flv
Format                           : Flash Video
File size                        : 23.7 MiB
Duration                         : 2mn 32s
Overall bit rate                 : 1 309 Kbps
Tagging application              : FlixEngineLinux_8.0.16.1 (www.on2.com)

Video
Format                           : VP6
Duration                         : 2mn 32s
Bit rate                         : 1 208 Kbps
Width                            : 1 280 pixels
Height                           : 720 pixels
Display aspect ratio             : 16:9
Frame rate                       : 30.000 fps
Bits/(Pixel*Frame)               : 0.044
Stream size                      : 22.4 MiB (94%)

Audio
Format                           : MPEG Audio
Format version                   : Version 1
Format profile                   : Layer 3
Format_Settings_Mode             : Joint stereo
Format_Settings_ModeExtension    : MS Stereo
Duration                         : 2mn 32s
Bit rate mode                    : Constant
Bit rate                         : 64.0 Kbps
Channel(s)                       : 2 channels
Sampling rate                    : 44.1 KHz
Video delay                      : 23ms
Stream size                      : 1.16 MiB (5%)
Writing library                  : LAMEUUULAME3.96.1


</RawData>
          <MultiStreamInfo></MultiStreamInfo>
          <FlavorAssetVersion>1</FlavorAssetVersion>
          <ScanType>0</ScanType>
          <MultiStream></MultiStream>
        </Input>
      </Inputs>
      <OutputReferences/>
    </UnitTestData>
    <UnitTestData>
      <Description>test data 4 - MBR</Description>
      <Inputs>
        <Input type="mediaInfo" key="32653152">
          <Id>32653152</Id>
          <CreatedAt>2010-11-29 11:36:55</CreatedAt>
          <UpdatedAt>2010-11-29 11:36:55</UpdatedAt>
          <FlavorAssetId>0_m778mlh3</FlavorAssetId>
          <FileSize>74649</FileSize>
          <ContainerFormat>mpeg-4</ContainerFormat>
          <ContainerId>mp42</ContainerId>
          <ContainerProfile></ContainerProfile>
          <ContainerDuration>152000</ContainerDuration>
          <ContainerBitRate>4022</ContainerBitRate>
          <VideoFormat>avc</VideoFormat>
          <VideoCodecId>avc1</VideoCodecId>
          <VideoDuration>152000</VideoDuration>
          <VideoBitRate>3901</VideoBitRate>
          <VideoBitRateMode></VideoBitRateMode>
          <VideoWidth>1280</VideoWidth>
          <VideoHeight>720</VideoHeight>
          <VideoFrameRate>29.97</VideoFrameRate>
          <VideoDar>1.77778</VideoDar>
          <VideoRotation>0</VideoRotation>
          <AudioFormat>aac</AudioFormat>
          <AudioCodecId>40</AudioCodecId>
          <AudioDuration>152000</AudioDuration>
          <AudioBitRate>115</AudioBitRate>
          <AudioBitRateMode></AudioBitRateMode>
          <AudioChannels>2</AudioChannels>
          <AudioSamplingRate>44100</AudioSamplingRate>
          <AudioResolution></AudioResolution>
          <WritingLib></WritingLib>
          <CustomData></CustomData>
          <RawData>General
Complete name                    : /web/storage/r30/v1/content/entry/data/46/799/0_muf6ach2_0_m778mlh3_1.mp4
Format                           : MPEG-4
Format profile                   : Base Media / Version 2
Codec ID                         : mp42
File size                        : 72.9 MiB
Duration                         : 2mn 32s
Overall bit rate                 : 4 022 Kbps
Encoded date                     : UTC 2010-11-18 21:23:14
Tagged date                      : UTC 2010-11-18 21:23:16

Video
ID                               : 2
Format                           : AVC
Format/Info                      : Advanced Video Codec
Format profile                   : Main@L3.1
Format settings, CABAC           : No
Format settings, ReFrames        : 2 frames
Codec ID                         : avc1
Codec ID/Info                    : Advanced Video Coding
Duration                         : 2mn 32s
Bit rate mode                    : Variable
Bit rate                         : 3 901 Kbps
Width                            : 1 280 pixels
Height                           : 720 pixels
Display aspect ratio             : 16:9
Frame rate mode                  : Constant
Frame rate                       : 29.970 fps
Resolution                       : 8 bits
Colorimetry                      : 4:2:0
Scan type                        : Progressive
Bits/(Pixel*Frame)               : 0.141
Stream size                      : 70.7 MiB (97%)
Language                         : English
Encoded date                     : UTC 2010-11-18 21:16:36
Tagged date                      : UTC 2010-11-18 21:23:16
Color primaries                  : BT.709-5, BT.1361, IEC 61966-2-4, SMPTE RP177
Transfer characteristics         : BT.709-5, BT.1361
Matrix coefficients              : BT.709-5, BT.1361, IEC 61966-2-4 709, SMPTE RP177

Audio
ID                               : 1
Format                           : AAC
Format/Info                      : Advanced Audio Codec
Format version                   : Version 4
Format profile                   : LC
Format settings, SBR             : No
Codec ID                         : 40
Duration                         : 2mn 32s
Bit rate mode                    : Constant
Bit rate                         : 115 Kbps
Nominal bit rate                 : 128 Kbps
Channel(s)                       : 2 channels
Channel positions                : L R
Sampling rate                    : 44.1 KHz
Stream size                      : 2.08 MiB (3%)
Language                         : English
Encoded date                     : UTC 2010-11-18 21:16:36
Tagged date                      : UTC 2010-11-18 21:23:16


</RawData>
          <MultiStreamInfo></MultiStreamInfo>
          <FlavorAssetVersion>1</FlavorAssetVersion>
          <ScanType>0</ScanType>
          <MultiStream></MultiStream>
        </Input>
        <Input type="flavorParamsOutput" key="17467802">
          <Id>17467802</Id>
          <FlavorParamsId>1</FlavorParamsId>
          <FlavorParamsVersion>0</FlavorParamsVersion>
          <PartnerId>337071</PartnerId>
          <EntryId>0_muf6ach2</EntryId>
          <FlavorAssetId>0_t7x9tq36</FlavorAssetId>
          <FlavorAssetVersion></FlavorAssetVersion>
          <Name>HD</Name>
          <Tags>web,mbr</Tags>
          <Description></Description>
          <ReadyBehavior>2</ReadyBehavior>
          <CreatedAt>2010-11-29 11:36:56</CreatedAt>
          <UpdatedAt>2010-11-29 11:36:56</UpdatedAt>
          <DeletedAt></DeletedAt>
          <IsDefault>0</IsDefault>
          <Format>flv</Format>
          <VideoCodec>vp6</VideoCodec>
          <VideoBitrate>4000</VideoBitrate>
          <AudioCodec>mp3</AudioCodec>
          <AudioBitrate>192</AudioBitrate>
          <AudioChannels>2</AudioChannels>
          <AudioSampleRate>44100</AudioSampleRate>
          <AudioResolution></AudioResolution>
          <Width>1280</Width>
          <Height>720</Height>
          <FrameRate>29.97</FrameRate>
          <GopSize>60</GopSize>
          <TwoPass></TwoPass>
          <ConversionEngines>1,4,2,99,3</ConversionEngines>
          <ConversionEnginesExtraParams></ConversionEnginesExtraParams>
          <CustomData></CustomData>
          <array>
            <CommandLines key="1">-i __inFileName__ -c VP6 -r 30 -b 4000 -k 60 -w 1280 -h 720 -a 192 -s 44100 -o __outFileName__</CommandLines>
            <CommandLines key="4">encoding.com</CommandLines>
            <CommandLines key="2">-i __inFileName__ -vcodec flv -b 4000k -s 1280x720 -r 29.97 -g 60 -acodec libmp3lame -ab 192k -ar 44100 -ac 2 -f flv -y __outFileName__</CommandLines>
            <CommandLines key="99">-i __inFileName__ -vcodec flv -b 4000k -s 1280x720 -r 29.97 -g 60 -acodec libmp3lame -ab 192k -ar 44100 -ac 2 -f flv -y __outFileName__</CommandLines>
            <CommandLines key="3"> __inFileName__ -of lavf -lavfopts format=flv -ofps 29.97 -ovc lavc -lavcopts vcodec=flv:vbitrate=4000:mbd=2:mv0:trell:v4mv:cbp:last_pred=3:keyint=60 -vf harddup,scale=1280:720 -oac mp3lame -lameopts abr:br=192 -srate 44100 -o __outFileName__</CommandLines>
          </array>
          <FileExt>flv</FileExt>
          <Deinterlice>0</Deinterlice>
          <Rotate>0</Rotate>
          <Operators></Operators>
          <EngineVersion>0</EngineVersion>
        </Input>
        <Input type="mediaInfo" key="32653452">
          <Id>32653452</Id>
          <CreatedAt>2010-11-29 11:43:01</CreatedAt>
          <UpdatedAt>2010-11-29 11:43:01</UpdatedAt>
          <FlavorAssetId>0_t7x9tq36</FlavorAssetId>
          <FileSize>50995</FileSize>
          <ContainerFormat>flash video</ContainerFormat>
          <ContainerId></ContainerId>
          <ContainerProfile></ContainerProfile>
          <ContainerDuration>152000</ContainerDuration>
          <ContainerBitRate>2745</ContainerBitRate>
          <VideoFormat>vp6</VideoFormat>
          <VideoCodecId></VideoCodecId>
          <VideoDuration>152000</VideoDuration>
          <VideoBitRate>2611</VideoBitRate>
          <VideoBitRateMode></VideoBitRateMode>
          <VideoWidth>1280</VideoWidth>
          <VideoHeight>720</VideoHeight>
          <VideoFrameRate>30</VideoFrameRate>
          <VideoDar>1.77778</VideoDar>
          <VideoRotation>0</VideoRotation>
          <AudioFormat>mpeg audio</AudioFormat>
          <AudioCodecId></AudioCodecId>
          <AudioDuration>152000</AudioDuration>
          <AudioBitRate>64</AudioBitRate>
          <AudioBitRateMode></AudioBitRateMode>
          <AudioChannels>2</AudioChannels>
          <AudioSamplingRate>44100</AudioSamplingRate>
          <AudioResolution></AudioResolution>
          <WritingLib></WritingLib>
          <CustomData></CustomData>
          <RawData>General
Complete name                    : /web/storage/r30/v1/content/entry/data/46/799/0_muf6ach2_0_t7x9tq36_1.flv
Format                           : Flash Video
File size                        : 49.8 MiB
Duration                         : 2mn 32s
Overall bit rate                 : 2 745 Kbps
Tagging application              : FlixEngineLinux_8.0.16.1 (www.on2.com)

Video
Format                           : VP6
Duration                         : 2mn 32s
Bit rate                         : 2 611 Kbps
Width                            : 1 280 pixels
Height                           : 720 pixels
Display aspect ratio             : 16:9
Frame rate                       : 30.000 fps
Bits/(Pixel*Frame)               : 0.094
Stream size                      : 48.4 MiB (97%)

Audio
Format                           : MPEG Audio
Format version                   : Version 1
Format profile                   : Layer 3
Format_Settings_Mode             : Joint stereo
Format_Settings_ModeExtension    : MS Stereo
Duration                         : 2mn 32s
Bit rate mode                    : Constant
Bit rate                         : 64.0 Kbps
Channel(s)                       : 2 channels
Sampling rate                    : 44.1 KHz
Video delay                      : 23ms
Stream size                      : 1.16 MiB (2%)
Writing library                  : LAMEUUULAME3.96.1


</RawData>
          <MultiStreamInfo></MultiStreamInfo>
          <FlavorAssetVersion>1</FlavorAssetVersion>
          <ScanType>0</ScanType>
          <MultiStream></MultiStream>
        </Input>
      </Inputs>
      <OutputReferences/>
    </UnitTestData>
  </UnitTestsData>
</UnitTests>
